<svg width="32" height="32" viewBox="0 0 32 32" fill="none" xmlns="http://www.w3.org/2000/svg">
<rect x="0.666667" y="0.666667" width="30.6667" height="30.6667" rx="15.3333" stroke="#FF0000" stroke-width="1.33333"/>
<path opacity="0.4" d="M22.6667 14.1953V22.222C22.6667 23.9998 22.2223 24.8886 20 24.8886H12C9.77782 24.8886 9.33337 23.9998 9.33337 22.222V14.1953C9.4756 14.2131 9.62671 14.222 9.77782 14.222H22.2223C22.3734 14.222 22.5245 14.2131 22.6667 14.1953Z" fill="#FF0000"/>
<path d="M24.8889 9.77775V11.5555C24.8889 13.1822 24.1511 14.0622 22.6666 14.1955C22.5244 14.2133 22.3733 14.2222 22.2222 14.2222H9.77775C9.62664 14.2222 9.47553 14.2133 9.33331 14.1955C7.84886 14.0622 7.11108 13.1822 7.11108 11.5555V9.77775C7.11108 7.99997 7.99997 7.11108 9.77775 7.11108H22.2222C24 7.11108 24.8889 7.99997 24.8889 9.77775Z" fill="#FF0000"/>
<path d="M17.6178 18.4444H14.3822C14.0178 18.4444 13.7156 18.1422 13.7156 17.7778C13.7156 17.4133 14.0178 17.1111 14.3822 17.1111H17.6178C17.9822 17.1111 18.2845 17.4133 18.2845 17.7778C18.2845 18.1422 17.9822 18.4444 17.6178 18.4444Z" fill="#FF0000"/>
</svg>
