<svg width="32" height="32" viewBox="0 0 32 32" fill="none" xmlns="http://www.w3.org/2000/svg">
<rect x="0.666667" y="0.666667" width="30.6667" height="30.6667" rx="15.3333" stroke="#0000FF" stroke-width="1.33333"/>
<path d="M9.26217 23.6258C9.13885 23.6256 9.01692 23.5997 8.90413 23.5499C8.79135 23.5 8.69018 23.4272 8.60706 23.3361C8.52244 23.2457 8.45786 23.1385 8.41758 23.0215C8.37729 22.9045 8.36219 22.7802 8.37328 22.6569L8.59106 20.2623L18.6515 10.2054L21.7955 13.3485L11.7377 23.4045L9.34306 23.6223C9.31617 23.6248 9.28918 23.6259 9.26217 23.6258ZM22.4231 12.7201L19.2799 9.57694L21.1653 7.69161C21.2478 7.60896 21.3459 7.5434 21.4538 7.49867C21.5617 7.45393 21.6774 7.43091 21.7942 7.43091C21.911 7.43091 22.0267 7.45393 22.1346 7.49867C22.2425 7.5434 22.3405 7.60896 22.4231 7.69161L24.3084 9.57694C24.391 9.65949 24.4566 9.75753 24.5013 9.86544C24.5461 9.97335 24.5691 10.089 24.5691 10.2058C24.5691 10.3226 24.5461 10.4383 24.5013 10.5462C24.4566 10.6541 24.391 10.7522 24.3084 10.8347L22.4239 12.7192L22.4231 12.7201Z" fill="#0000FF"/>
</svg>
