<svg width="32" height="32" viewBox="0 0 32 32" fill="none" xmlns="http://www.w3.org/2000/svg">
<path opacity="0.4" d="M21.6534 4.8667H10.3467C7.05339 4.8667 4.38672 7.5467 4.38672 10.8267V23.3734C4.38672 26.6534 7.06672 29.3334 10.3467 29.3334H21.6401C24.9334 29.3334 27.6 26.6534 27.6 23.3734V10.8267C27.6134 7.53337 24.9334 4.8667 21.6534 4.8667Z" fill="#000303"/>
<path d="M19.1333 2.6665H12.8667C11.48 2.6665 10.3467 3.7865 10.3467 5.17317V6.4265C10.3467 7.81317 11.4667 8.93317 12.8533 8.93317H19.1333C20.52 8.93317 21.64 7.81317 21.64 6.4265V5.17317C21.6533 3.7865 20.52 2.6665 19.1333 2.6665Z" fill="#000303"/>
<path d="M20.0001 17.2666H10.6667C10.1201 17.2666 9.66675 16.8133 9.66675 16.2666C9.66675 15.7199 10.1201 15.2666 10.6667 15.2666H20.0001C20.5467 15.2666 21.0001 15.7199 21.0001 16.2666C21.0001 16.8133 20.5467 17.2666 20.0001 17.2666Z" fill="#000303"/>
<path d="M16.5067 22.6001H10.6667C10.1201 22.6001 9.66675 22.1468 9.66675 21.6001C9.66675 21.0534 10.1201 20.6001 10.6667 20.6001H16.5067C17.0534 20.6001 17.5067 21.0534 17.5067 21.6001C17.5067 22.1468 17.0534 22.6001 16.5067 22.6001Z" fill="#000303"/>
</svg>
