<svg width="32" height="32" viewBox="0 0 32 32" fill="none" xmlns="http://www.w3.org/2000/svg">
<path d="M10.6666 7.6665C10.12 7.6665 9.66663 7.21317 9.66663 6.6665V2.6665C9.66663 2.11984 10.12 1.6665 10.6666 1.6665C11.2133 1.6665 11.6666 2.11984 11.6666 2.6665V6.6665C11.6666 7.21317 11.2133 7.6665 10.6666 7.6665Z" fill="#008282"/>
<path d="M21.3333 7.6665C20.7866 7.6665 20.3333 7.21317 20.3333 6.6665V2.6665C20.3333 2.11984 20.7866 1.6665 21.3333 1.6665C21.8799 1.6665 22.3333 2.11984 22.3333 2.6665V6.6665C22.3333 7.21317 21.8799 7.6665 21.3333 7.6665Z" fill="#008282"/>
<path opacity="0.4" d="M28 11.3332V22.6665C28 26.6665 26 29.3332 21.3333 29.3332H10.6667C6 29.3332 4 26.6665 4 22.6665V11.3332C4 7.33317 6 4.6665 10.6667 4.6665H21.3333C26 4.6665 28 7.33317 28 11.3332Z" fill="#008282"/>
<path d="M21.3333 15.6665H10.6666C10.12 15.6665 9.66663 15.2132 9.66663 14.6665C9.66663 14.1198 10.12 13.6665 10.6666 13.6665H21.3333C21.88 13.6665 22.3333 14.1198 22.3333 14.6665C22.3333 15.2132 21.88 15.6665 21.3333 15.6665Z" fill="#008282"/>
<path d="M16 22.3335H10.6666C10.12 22.3335 9.66663 21.8802 9.66663 21.3335C9.66663 20.7868 10.12 20.3335 10.6666 20.3335H16C16.5466 20.3335 17 20.7868 17 21.3335C17 21.8802 16.5466 22.3335 16 22.3335Z" fill="#008282"/>
</svg>
