<svg width="28" height="29" viewBox="0 0 28 29" fill="none" xmlns="http://www.w3.org/2000/svg">
<path opacity="0.4" d="M23.7999 19.2801C23.4733 20.1551 22.785 20.8201 21.8866 21.1234C20.6266 21.5434 19.3316 21.8584 18.025 22.0801C17.8966 22.1035 17.7683 22.1268 17.64 22.1385C17.43 22.1735 17.22 22.1968 17.01 22.2201C16.7533 22.2551 16.485 22.2785 16.2166 22.3018C15.4816 22.3601 14.7583 22.3951 14.0233 22.3951C13.2766 22.3951 12.53 22.3601 11.795 22.2901C11.48 22.2668 11.1766 22.2318 10.8733 22.1851L10.36 22.1151C10.2316 22.0918 10.1033 22.0801 9.97495 22.0568C8.67995 21.8468 7.39662 21.5318 6.14828 21.1118C5.21495 20.7968 4.50329 20.1318 4.18829 19.2801C3.87329 18.4401 3.98995 17.4601 4.49162 16.6201L5.80995 14.4268C6.08995 13.9485 6.34662 13.0268 6.34662 12.4668V10.2968C6.34662 6.06178 9.78829 2.62012 14.0233 2.62012C18.2466 2.62012 21.6883 6.06178 21.6883 10.2968V12.4668C21.6883 13.0268 21.945 13.9485 22.2366 14.4268L23.555 16.6201C24.0333 17.4368 24.1266 18.3934 23.7999 19.2801Z" fill="#003636"/>
<path d="M14 12.7817C13.7648 12.7817 13.5393 12.6883 13.373 12.522C13.2067 12.3557 13.1133 12.1302 13.1133 11.8951V8.27839C13.1133 8.04323 13.2067 7.8177 13.373 7.65142C13.5393 7.48514 13.7648 7.39172 14 7.39172C14.2351 7.39172 14.4606 7.48514 14.6269 7.65142C14.7932 7.8177 14.8866 8.04323 14.8866 8.27839V11.8951C14.875 12.3851 14.4783 12.7817 14 12.7817ZM17.3016 23.5734C17.0563 24.2526 16.6078 24.8397 16.0171 25.2551C15.4264 25.6705 14.7221 25.8939 14 25.8951C13.0783 25.8951 12.1683 25.5217 11.5266 24.8567C11.1533 24.5067 10.8733 24.0401 10.71 23.5617C10.8616 23.5851 11.0133 23.5967 11.1766 23.6201C11.445 23.6551 11.725 23.6901 12.005 23.7134C12.67 23.7717 13.3466 23.8067 14.0233 23.8067C14.6883 23.8067 15.3533 23.7717 16.0066 23.7134C16.2516 23.6901 16.4966 23.6784 16.73 23.6434L17.3016 23.5734Z" fill="#003636"/>
</svg>
