<svg width="33" height="32" viewBox="0 0 33 32" fill="none" xmlns="http://www.w3.org/2000/svg">
<path opacity="0.5" d="M8.84659 28.5171H8.49992C7.24259 28.5171 6.61459 28.5171 6.22392 28.1265C5.83325 27.7385 5.83325 27.1091 5.83325 25.8518V24.3691C5.83325 23.6785 5.83325 23.3331 6.01059 23.0238C6.18792 22.7158 6.45592 22.5598 6.99192 22.2478C10.5199 20.1958 15.5293 19.0411 18.8719 21.0345C19.0959 21.1691 19.2986 21.3318 19.4719 21.5251C19.651 21.7214 19.7889 21.9515 19.8776 22.2019C19.9663 22.4524 20.0039 22.718 19.9883 22.9832C19.9726 23.2485 19.904 23.5078 19.7864 23.7461C19.6689 23.9843 19.5048 24.1966 19.3039 24.3705C19.1437 24.5228 18.948 24.6327 18.7346 24.6905C18.8946 24.6718 19.0479 24.6505 19.1946 24.6278C20.4093 24.4345 21.4292 23.7838 22.3626 23.0785L24.7733 21.2585C25.2033 20.9456 25.7214 20.7771 26.2533 20.7771C26.7851 20.7771 27.3032 20.9456 27.7332 21.2585C28.4972 21.8358 28.7319 22.7865 28.2479 23.5625C27.6839 24.4665 26.8892 25.6225 26.1266 26.3291C25.3626 27.0358 24.2253 27.6678 23.2973 28.1158C22.2679 28.6131 21.1319 28.8985 19.9759 29.0865C17.6319 29.4651 15.1893 29.4065 12.8693 28.9291C11.5456 28.657 10.1979 28.5181 8.84659 28.5171Z" fill="black"/>
<path d="M9.28137 3.44788C8.79204 3.93721 8.60937 4.61188 8.54137 5.66654C9.32296 5.65584 10.0695 5.34051 10.6221 4.78767C11.1747 4.23482 11.4897 3.48814 11.5 2.70654C10.4467 2.77588 9.77071 2.95854 9.28137 3.44788ZM23.7187 3.44788C23.2294 2.95854 22.5547 2.77588 21.5 2.70788C21.5107 3.48946 21.8261 4.23601 22.3789 4.7886C22.9318 5.3412 23.6784 5.65619 24.46 5.66654C24.3907 4.61321 24.208 3.93721 23.7187 3.44788ZM23.7187 12.5519C23.2294 13.0412 22.5547 13.2239 21.5 13.2919C21.5107 12.5103 21.8261 11.7637 22.3789 11.2111C22.9318 10.6586 23.6784 10.3436 24.46 10.3332C24.3907 11.3865 24.208 12.0625 23.7187 12.5519ZM9.28137 12.5519C9.77071 13.0412 10.4454 13.2239 11.5 13.2919C11.4893 12.5103 11.174 11.7637 10.6212 11.2111C10.0683 10.6586 9.32163 10.3436 8.54004 10.3332C8.60937 11.3865 8.79204 12.0625 9.28137 12.5519Z" fill="black"/>
<path fill-rule="evenodd" clip-rule="evenodd" d="M8.5 7.6665C9.82608 7.6665 11.0979 7.13972 12.0355 6.20204C12.9732 5.26436 13.5 3.99259 13.5 2.6665H19.5C19.5 3.99259 20.0268 5.26436 20.9645 6.20204C21.9021 7.13972 23.1739 7.6665 24.5 7.6665V8.33317C23.1739 8.33317 21.9021 8.85995 20.9645 9.79764C20.0268 10.7353 19.5 12.0071 19.5 13.3332H13.5C13.5 12.0071 12.9732 10.7353 12.0355 9.79764C11.0979 8.85995 9.82608 8.33317 8.5 8.33317V7.6665ZM16.5 9.33317C16.8536 9.33317 17.1928 9.19269 17.4428 8.94265C17.6929 8.6926 17.8333 8.35346 17.8333 7.99984C17.8333 7.64622 17.6929 7.30708 17.4428 7.05703C17.1928 6.80698 16.8536 6.6665 16.5 6.6665C16.1464 6.6665 15.8072 6.80698 15.5572 7.05703C15.3071 7.30708 15.1667 7.64622 15.1667 7.99984C15.1667 8.35346 15.3071 8.6926 15.5572 8.94265C15.8072 9.19269 16.1464 9.33317 16.5 9.33317Z" fill="black"/>
</svg>
