<svg width="40" height="39" viewBox="0 0 40 39" fill="none" xmlns="http://www.w3.org/2000/svg">
<g clip-path="url(#clip0_35_97)">
<path d="M5 13C5 13.8938 5.73125 14.625 6.625 14.625C7.51875 14.625 8.25 13.8938 8.25 13V9.75H11.5C12.3938 9.75 13.125 9.01875 13.125 8.125C13.125 7.23125 12.3938 6.5 11.5 6.5H8.25V3.25C8.25 2.35625 7.51875 1.625 6.625 1.625C5.73125 1.625 5 2.35625 5 3.25V6.5H1.75C0.85625 6.5 0.125 7.23125 0.125 8.125C0.125 9.01875 0.85625 9.75 1.75 9.75H5V13Z" fill="#BBC1C7"/>
<path d="M21.25 27.625C23.9424 27.625 26.125 25.4424 26.125 22.75C26.125 20.0576 23.9424 17.875 21.25 17.875C18.5576 17.875 16.375 20.0576 16.375 22.75C16.375 25.4424 18.5576 27.625 21.25 27.625Z" fill="#BBC1C7"/>
<path d="M34.25 9.75H29.0987L27.0837 7.55625C26.7809 7.22376 26.4121 6.9581 26.0008 6.77623C25.5894 6.59436 25.1447 6.50028 24.695 6.5H14.295C14.5712 6.9875 14.75 7.52375 14.75 8.125C14.75 9.9125 13.2875 11.375 11.5 11.375H9.875V13C9.875 14.7875 8.4125 16.25 6.625 16.25C6.02375 16.25 5.4875 16.0712 5 15.795V32.5C5 34.2875 6.4625 35.75 8.25 35.75H34.25C36.0375 35.75 37.5 34.2875 37.5 32.5V13C37.5 11.2125 36.0375 9.75 34.25 9.75ZM21.25 30.875C16.765 30.875 13.125 27.235 13.125 22.75C13.125 18.265 16.765 14.625 21.25 14.625C25.735 14.625 29.375 18.265 29.375 22.75C29.375 27.235 25.735 30.875 21.25 30.875Z" fill="#BBC1C7"/>
</g>
<defs>
<clipPath id="clip0_35_97">
<rect width="39" height="39" fill="white" transform="translate(0.125)"/>
</clipPath>
</defs>
</svg>
