<svg width="28" height="28" viewBox="0 0 28 28" fill="none" xmlns="http://www.w3.org/2000/svg">
<path d="M18.6667 17.5V22.1667C18.6667 24.1033 17.1034 25.6667 15.1667 25.6667H12.8334C10.8967 25.6667 9.33337 24.1033 9.33337 22.1667V17.5H18.6667Z" fill="#008282"/>
<path d="M8.16663 8.16683V5.8335C8.16663 3.89683 9.72996 2.3335 11.6666 2.3335H16.3333C18.27 2.3335 19.8333 3.89683 19.8333 5.8335V8.16683H8.16663Z" fill="#008282"/>
<path opacity="0.4" d="M21 8.1665H7C4.66667 8.1665 3.5 9.33317 3.5 11.6665V17.4998C3.5 19.8332 4.66667 20.9998 7 20.9998H9.33333V17.4998H18.6667V20.9998H21C23.3333 20.9998 24.5 19.8332 24.5 17.4998V11.6665C24.5 9.33317 23.3333 8.1665 21 8.1665ZM11.6667 13.7082H8.16667C7.68833 13.7082 7.29167 13.3115 7.29167 12.8332C7.29167 12.3548 7.68833 11.9582 8.16667 11.9582H11.6667C12.145 11.9582 12.5417 12.3548 12.5417 12.8332C12.5417 13.3115 12.145 13.7082 11.6667 13.7082Z" fill="#008282"/>
<path d="M12.5416 12.8335C12.5416 13.3118 12.145 13.7085 11.6666 13.7085H8.16663C7.68829 13.7085 7.29163 13.3118 7.29163 12.8335C7.29163 12.3552 7.68829 11.9585 8.16663 11.9585H11.6666C12.145 11.9585 12.5416 12.3552 12.5416 12.8335Z" fill="#008282"/>
<path d="M19.8333 18.375H8.16663C7.68829 18.375 7.29163 17.9783 7.29163 17.5C7.29163 17.0217 7.68829 16.625 8.16663 16.625H19.8333C20.3116 16.625 20.7083 17.0217 20.7083 17.5C20.7083 17.9783 20.3116 18.375 19.8333 18.375Z" fill="#008282"/>
</svg>
