<svg width="28" height="28" viewBox="0 0 28 28" fill="none" xmlns="http://www.w3.org/2000/svg">
<path d="M18.6667 17.5V22.1667C18.6667 24.1033 17.1034 25.6667 15.1667 25.6667H12.8334C10.8967 25.6667 9.33337 24.1033 9.33337 22.1667V17.5H18.6667Z" fill="#000303"/>
<path d="M8.16663 8.16671V5.83337C8.16663 3.89671 9.72996 2.33337 11.6666 2.33337H16.3333C18.27 2.33337 19.8333 3.89671 19.8333 5.83337V8.16671H8.16663Z" fill="#000303"/>
<path opacity="0.4" d="M21 8.16663H7C4.66667 8.16663 3.5 9.33329 3.5 11.6666V17.5C3.5 19.8333 4.66667 21 7 21H9.33333V17.5H18.6667V21H21C23.3333 21 24.5 19.8333 24.5 17.5V11.6666C24.5 9.33329 23.3333 8.16663 21 8.16663ZM11.6667 13.7083H8.16667C7.68833 13.7083 7.29167 13.3116 7.29167 12.8333C7.29167 12.355 7.68833 11.9583 8.16667 11.9583H11.6667C12.145 11.9583 12.5417 12.355 12.5417 12.8333C12.5417 13.3116 12.145 13.7083 11.6667 13.7083Z" fill="#000303"/>
<path d="M12.5416 12.8334C12.5416 13.3117 12.145 13.7084 11.6666 13.7084H8.16663C7.68829 13.7084 7.29163 13.3117 7.29163 12.8334C7.29163 12.355 7.68829 11.9584 8.16663 11.9584H11.6666C12.145 11.9584 12.5416 12.355 12.5416 12.8334Z" fill="#000303"/>
<path d="M19.8333 18.375H8.16663C7.68829 18.375 7.29163 17.9783 7.29163 17.5C7.29163 17.0217 7.68829 16.625 8.16663 16.625H19.8333C20.3116 16.625 20.7083 17.0217 20.7083 17.5C20.7083 17.9783 20.3116 18.375 19.8333 18.375Z" fill="#000303"/>
</svg>
