<svg width="29" height="28" viewBox="0 0 29 28" fill="none" xmlns="http://www.w3.org/2000/svg">
<path opacity="0.4" d="M19.3884 2.33325H9.61171C5.36504 2.33325 2.83337 4.86492 2.83337 9.11159V18.8766C2.83337 23.1349 5.36504 25.6666 9.61171 25.6666H19.3767C23.6234 25.6666 26.155 23.1349 26.155 18.8883V9.11159C26.1667 4.86492 23.635 2.33325 19.3884 2.33325Z" fill="#008282"/>
<path d="M8.52673 22.05C8.0484 22.05 7.65173 21.6533 7.65173 21.175V18.76C7.65173 18.2817 8.0484 17.885 8.52673 17.885C9.00507 17.885 9.40173 18.2817 9.40173 18.76V21.175C9.40173 21.665 9.00507 22.05 8.52673 22.05Z" fill="#008282"/>
<path d="M14.5 22.0499C14.0217 22.0499 13.625 21.6533 13.625 21.1749V16.3333C13.625 15.8549 14.0217 15.4583 14.5 15.4583C14.9783 15.4583 15.375 15.8549 15.375 16.3333V21.1749C15.375 21.6649 14.9783 22.0499 14.5 22.0499Z" fill="#008282"/>
<path d="M20.4734 22.0499C19.9951 22.0499 19.5984 21.6532 19.5984 21.1749V13.9182C19.5984 13.4399 19.9951 13.0432 20.4734 13.0432C20.9517 13.0432 21.3484 13.4399 21.3484 13.9182V21.1749C21.3484 21.6649 20.9634 22.0499 20.4734 22.0499Z" fill="#008282"/>
<path d="M21.3484 6.78995C21.3484 6.73162 21.325 6.66162 21.3134 6.60328C21.3017 6.55662 21.29 6.49828 21.2783 6.45162C21.255 6.40495 21.22 6.36995 21.1967 6.32328C21.1617 6.27662 21.1267 6.21828 21.08 6.18328C21.0683 6.17162 21.0684 6.15995 21.0567 6.15995C21.0217 6.13662 20.9867 6.12495 20.9517 6.10162C20.905 6.06662 20.8467 6.03162 20.7883 6.00828C20.73 5.98495 20.6717 5.98495 20.6133 5.97328C20.5667 5.96162 20.5317 5.94995 20.485 5.94995H17.0667C16.5884 5.94995 16.1917 6.34662 16.1917 6.82495C16.1917 7.30328 16.5884 7.69995 17.0667 7.69995H18.525C15.7484 10.6166 12.2484 12.67 8.31668 13.6616C7.85002 13.7783 7.55835 14.2566 7.67502 14.7233C7.76835 15.12 8.13002 15.3883 8.52668 15.3883C8.59668 15.3883 8.66668 15.3766 8.73668 15.365C12.9017 14.3266 16.6234 12.1683 19.5984 9.11162V10.2433C19.5984 10.7216 19.995 11.1183 20.4734 11.1183C20.9517 11.1183 21.3484 10.7216 21.3484 10.2433V6.82495C21.3484 6.81328 21.3484 6.80162 21.3484 6.78995Z" fill="#008282"/>
</svg>
