<svg width="29" height="28" viewBox="0 0 29 28" fill="none" xmlns="http://www.w3.org/2000/svg">
<path opacity="0.4" d="M20.5326 0H8.80063C3.70463 0 0.666626 3.038 0.666626 8.134V19.866C0.666626 24.962 3.70463 28 8.80063 28H20.5326C25.6286 28 28.6666 24.962 28.6666 19.866V8.134C28.6666 3.038 25.6286 0 20.5326 0Z" fill="#008282"/>
<path d="M23.5007 9.61812C23.5007 10.1921 23.0387 10.6681 22.4507 10.6681H15.1007C14.5267 10.6681 14.0507 10.1921 14.0507 9.61812C14.0507 9.04412 14.5267 8.56812 15.1007 8.56812H22.4507C23.0387 8.56812 23.5007 9.04412 23.5007 9.61812Z" fill="#008282"/>
<path d="M11.8247 8.25994L8.67468 11.4099C8.46468 11.6199 8.19868 11.7179 7.93268 11.7179C7.66668 11.7179 7.38668 11.6199 7.19068 11.4099L6.14068 10.3599C5.72068 9.95394 5.72068 9.28194 6.14068 8.87594C6.54668 8.46994 7.20468 8.46994 7.62468 8.87594L7.93268 9.18394L10.3407 6.77594C10.7467 6.36994 11.4047 6.36994 11.8247 6.77594C12.2307 7.18194 12.2307 7.85394 11.8247 8.25994Z" fill="#008282"/>
<path d="M23.5007 19.4179C23.5007 19.9919 23.0387 20.4679 22.4507 20.4679H15.1007C14.5267 20.4679 14.0507 19.9919 14.0507 19.4179C14.0507 18.8439 14.5267 18.3679 15.1007 18.3679H22.4507C23.0387 18.3679 23.5007 18.8439 23.5007 19.4179Z" fill="#008282"/>
<path d="M11.8247 18.06L8.67468 21.21C8.46468 21.42 8.19868 21.518 7.93268 21.518C7.66668 21.518 7.38668 21.42 7.19068 21.21L6.14068 20.16C5.72068 19.754 5.72068 19.082 6.14068 18.676C6.54668 18.27 7.20468 18.27 7.62468 18.676L7.93268 18.984L10.3407 16.576C10.7467 16.17 11.4047 16.17 11.8247 16.576C12.2307 16.982 12.2307 17.654 11.8247 18.06Z" fill="#008282"/>
</svg>
