<svg width="28" height="28" viewBox="0 0 28 28" fill="none" xmlns="http://www.w3.org/2000/svg">
<path d="M8.44671 2.33337H6.23004C3.67504 2.33337 2.33337 3.67504 2.33337 6.21837V8.43504C2.33337 10.9784 3.67504 12.32 6.21837 12.32H8.43504C10.9784 12.32 12.32 10.9784 12.32 8.43504V6.21837C12.3317 3.67504 10.99 2.33337 8.44671 2.33337Z" fill="#008282"/>
<path opacity="0.4" d="M21.7817 2.33337H19.5651C17.0217 2.33337 15.6801 3.67504 15.6801 6.21837V8.43504C15.6801 10.9784 17.0217 12.32 19.5651 12.32H21.7817C24.3251 12.32 25.6667 10.9784 25.6667 8.43504V6.21837C25.6667 3.67504 24.3251 2.33337 21.7817 2.33337Z" fill="#008282"/>
<path d="M21.7817 15.6683H19.5651C17.0217 15.6683 15.6801 17.01 15.6801 19.5533V21.77C15.6801 24.3133 17.0217 25.655 19.5651 25.655H21.7817C24.3251 25.655 25.6667 24.3133 25.6667 21.77V19.5533C25.6667 17.01 24.3251 15.6683 21.7817 15.6683Z" fill="#008282"/>
<path opacity="0.4" d="M8.44671 15.6683H6.23004C3.67504 15.6683 2.33337 17.01 2.33337 19.5533V21.77C2.33337 24.325 3.67504 25.6667 6.21837 25.6667H8.43504C10.9784 25.6667 12.32 24.325 12.32 21.7817V19.565C12.3317 17.01 10.99 15.6683 8.44671 15.6683Z" fill="#008282"/>
</svg>
