<svg width="29" height="28" viewBox="0 0 29 28" fill="none" xmlns="http://www.w3.org/2000/svg">
<path opacity="0.4" d="M19.3884 2.33337H9.61171C5.36504 2.33337 2.83337 4.86504 2.83337 9.11171V18.8767C2.83337 23.135 5.36504 25.6667 9.61171 25.6667H19.3767C23.6234 25.6667 26.155 23.135 26.155 18.8884V9.11171C26.1667 4.86504 23.635 2.33337 19.3884 2.33337Z" fill="#000303"/>
<path d="M8.52673 22.05C8.0484 22.05 7.65173 21.6533 7.65173 21.175V18.76C7.65173 18.2817 8.0484 17.885 8.52673 17.885C9.00507 17.885 9.40173 18.2817 9.40173 18.76V21.175C9.40173 21.665 9.00507 22.05 8.52673 22.05Z" fill="#000303"/>
<path d="M14.5 22.05C14.0217 22.05 13.625 21.6534 13.625 21.175V16.3334C13.625 15.855 14.0217 15.4584 14.5 15.4584C14.9783 15.4584 15.375 15.855 15.375 16.3334V21.175C15.375 21.665 14.9783 22.05 14.5 22.05Z" fill="#000303"/>
<path d="M20.4734 22.05C19.9951 22.05 19.5984 21.6533 19.5984 21.175V13.9183C19.5984 13.44 19.9951 13.0433 20.4734 13.0433C20.9517 13.0433 21.3484 13.44 21.3484 13.9183V21.175C21.3484 21.665 20.9634 22.05 20.4734 22.05Z" fill="#000303"/>
<path d="M21.3484 6.79007C21.3484 6.73174 21.325 6.66174 21.3134 6.60341C21.3017 6.55674 21.29 6.49841 21.2783 6.45174C21.255 6.40507 21.22 6.37007 21.1967 6.32341C21.1617 6.27674 21.1267 6.21841 21.08 6.18341C21.0683 6.17174 21.0684 6.16007 21.0567 6.16007C21.0217 6.13674 20.9867 6.12507 20.9517 6.10174C20.905 6.06674 20.8467 6.03174 20.7883 6.00841C20.73 5.98507 20.6717 5.98507 20.6133 5.97341C20.5667 5.96174 20.5317 5.95007 20.485 5.95007H17.0667C16.5884 5.95007 16.1917 6.34674 16.1917 6.82507C16.1917 7.30341 16.5884 7.70007 17.0667 7.70007H18.525C15.7484 10.6167 12.2484 12.6701 8.31668 13.6617C7.85002 13.7784 7.55835 14.2567 7.67502 14.7234C7.76835 15.1201 8.13002 15.3884 8.52668 15.3884C8.59668 15.3884 8.66668 15.3767 8.73668 15.3651C12.9017 14.3267 16.6234 12.1684 19.5984 9.11174V10.2434C19.5984 10.7217 19.995 11.1184 20.4734 11.1184C20.9517 11.1184 21.3484 10.7217 21.3484 10.2434V6.82507C21.3484 6.81341 21.3484 6.80174 21.3484 6.79007Z" fill="#000303"/>
</svg>
