<svg width="29" height="28" viewBox="0 0 29 28" fill="none" xmlns="http://www.w3.org/2000/svg">
<path opacity="0.4" d="M20.5326 0H8.80063C3.70463 0 0.666626 3.038 0.666626 8.134V19.866C0.666626 24.962 3.70463 28 8.80063 28H20.5326C25.6286 28 28.6666 24.962 28.6666 19.866V8.134C28.6666 3.038 25.6286 0 20.5326 0Z" fill="#000303"/>
<path d="M23.5007 9.61799C23.5007 10.192 23.0387 10.668 22.4507 10.668H15.1007C14.5267 10.668 14.0507 10.192 14.0507 9.61799C14.0507 9.04399 14.5267 8.56799 15.1007 8.56799H22.4507C23.0387 8.56799 23.5007 9.04399 23.5007 9.61799Z" fill="#000303"/>
<path d="M11.8247 8.26006L8.67468 11.4101C8.46468 11.6201 8.19868 11.7181 7.93268 11.7181C7.66668 11.7181 7.38668 11.6201 7.19068 11.4101L6.14068 10.3601C5.72068 9.95406 5.72068 9.28206 6.14068 8.87606C6.54668 8.47006 7.20468 8.47006 7.62468 8.87606L7.93268 9.18406L10.3407 6.77606C10.7467 6.37006 11.4047 6.37006 11.8247 6.77606C12.2307 7.18206 12.2307 7.85406 11.8247 8.26006Z" fill="#000303"/>
<path d="M23.5007 19.418C23.5007 19.992 23.0387 20.468 22.4507 20.468H15.1007C14.5267 20.468 14.0507 19.992 14.0507 19.418C14.0507 18.844 14.5267 18.368 15.1007 18.368H22.4507C23.0387 18.368 23.5007 18.844 23.5007 19.418Z" fill="#000303"/>
<path d="M11.8247 18.06L8.67468 21.21C8.46468 21.42 8.19868 21.518 7.93268 21.518C7.66668 21.518 7.38668 21.42 7.19068 21.21L6.14068 20.16C5.72068 19.754 5.72068 19.082 6.14068 18.676C6.54668 18.27 7.20468 18.27 7.62468 18.676L7.93268 18.984L10.3407 16.576C10.7467 16.17 11.4047 16.17 11.8247 16.576C12.2307 16.982 12.2307 17.654 11.8247 18.06Z" fill="#000303"/>
</svg>
