<svg width="28" height="28" viewBox="0 0 28 28" fill="none" xmlns="http://www.w3.org/2000/svg">
<path d="M8.44671 2.33325H6.23004C3.67504 2.33325 2.33337 3.67492 2.33337 6.21825V8.43492C2.33337 10.9783 3.67504 12.3199 6.21837 12.3199H8.43504C10.9784 12.3199 12.32 10.9783 12.32 8.43492V6.21825C12.3317 3.67492 10.99 2.33325 8.44671 2.33325Z" fill="#000303"/>
<path opacity="0.4" d="M21.7817 2.33325H19.5651C17.0217 2.33325 15.6801 3.67492 15.6801 6.21825V8.43492C15.6801 10.9783 17.0217 12.3199 19.5651 12.3199H21.7817C24.3251 12.3199 25.6667 10.9783 25.6667 8.43492V6.21825C25.6667 3.67492 24.3251 2.33325 21.7817 2.33325Z" fill="#000303"/>
<path d="M21.7817 15.6682H19.5651C17.0217 15.6682 15.6801 17.0099 15.6801 19.5532V21.7699C15.6801 24.3132 17.0217 25.6549 19.5651 25.6549H21.7817C24.3251 25.6549 25.6667 24.3132 25.6667 21.7699V19.5532C25.6667 17.0099 24.3251 15.6682 21.7817 15.6682Z" fill="#000303"/>
<path opacity="0.4" d="M8.44671 15.6682H6.23004C3.67504 15.6682 2.33337 17.0099 2.33337 19.5532V21.7699C2.33337 24.3249 3.67504 25.6665 6.21837 25.6665H8.43504C10.9784 25.6665 12.32 24.3249 12.32 21.7815V19.5649C12.3317 17.0099 10.99 15.6682 8.44671 15.6682Z" fill="#000303"/>
</svg>
