<svg width="13" height="13" viewBox="0 0 13 13" fill="none" xmlns="http://www.w3.org/2000/svg">
<path opacity="0.4" d="M10.4883 4.41286V5.82771L4.00697 10.5804L2.69674 9.59897C2.37292 9.35486 2.10889 8.83176 2.10889 8.42823V4.41286C2.10889 3.8549 2.53733 3.23715 3.06042 3.04286L5.78549 2.02158C6.06945 1.91696 6.52778 1.91696 6.81175 2.02158L9.53682 3.04286C10.0599 3.23715 10.4883 3.8549 10.4883 4.41286Z" fill="#000303"/>
<path d="M10.4884 6.51025V8.42826C10.4884 8.83179 10.2243 9.35489 9.90052 9.599L7.17546 11.6366C6.93633 11.8159 6.61749 11.9056 6.29865 11.9056C5.97981 11.9056 5.66097 11.8159 5.42185 11.6366L4.46533 10.9242L10.4884 6.51025Z" fill="#000303"/>
</svg>
